<svg width="24" height="24" viewBox="0 0 24 24" fill="none" xmlns="http://www.w3.org/2000/svg">
<path fill-rule="evenodd" clip-rule="evenodd" d="M5 10.0015C3.89543 10.0015 3 10.8969 3 12.0015C3 13.1061 3.89543 14.0015 5 14.0015C6.10457 14.0015 7 13.1061 7 12.0015C7 10.8969 6.10457 10.0015 5 10.0015ZM10 12.0015C10 10.8969 10.8954 10.0015 12 10.0015C13.1046 10.0015 14 10.8969 14 12.0015C14 13.1061 13.1046 14.0015 12 14.0015C10.8954 14.0015 10 13.1061 10 12.0015ZM17 12.0015C17 10.8969 17.8954 10.0015 19 10.0015C20.1046 10.0015 21 10.8969 21 12.0015C21 13.1061 20.1046 14.0015 19 14.0015C17.8954 14.0015 17 13.1061 17 12.0015Z" fill="white"/>
</svg>
