<svg width="22" height="22" viewBox="0 0 22 22" fill="none" xmlns="http://www.w3.org/2000/svg">
<path fill-rule="evenodd" clip-rule="evenodd" d="M11 2.83252C6.48972 2.83252 2.83337 6.48886 2.83337 10.9992C2.83337 15.5095 6.48972 19.1659 11 19.1659C15.5104 19.1659 19.1667 15.5095 19.1667 10.9992C19.1667 6.48886 15.5104 2.83252 11 2.83252ZM0.833374 10.9992C0.833374 5.38429 5.38515 0.83252 11 0.83252C16.6149 0.83252 21.1667 5.38429 21.1667 10.9992C21.1667 16.6141 16.6149 21.1659 11 21.1659C5.38515 21.1659 0.833374 16.6141 0.833374 10.9992ZM11.3107 7.03303C10.096 6.82084 8.99933 7.48304 8.6069 8.56617C8.41877 9.08543 7.84533 9.35386 7.32607 9.16573C6.80681 8.9776 6.53838 8.40415 6.72651 7.8849C7.45123 5.88459 9.48911 4.68453 11.6549 5.06287C12.6385 5.23469 13.5734 5.63518 14.2658 6.37462C14.9711 7.12782 15.3334 8.13552 15.3334 9.33582C15.3334 10.9909 14.0717 12.0843 13.1615 12.6734C12.6723 12.9901 12.1905 13.2233 11.8351 13.3766C11.6559 13.454 11.5053 13.5125 11.3972 13.5525C11.343 13.5725 11.2993 13.588 11.2677 13.5989L11.2296 13.6119L11.2177 13.6158L11.2136 13.6172L11.212 13.6177L11.2113 13.6179C11.211 13.618 11.2108 13.6181 10.9028 12.6667L11.2108 13.6181C10.6853 13.7881 10.1215 13.5 9.95143 12.9746C9.78156 12.4497 10.0688 11.8866 10.5931 11.7158L10.594 11.7156L10.5944 11.7154C10.5947 11.7153 10.5949 11.7153 10.8923 12.634L10.5949 11.7153L10.5958 11.7149L10.615 11.7084C10.6337 11.702 10.6637 11.6914 10.7033 11.6767C10.7828 11.6473 10.9002 11.6018 11.0426 11.5403C11.3305 11.4161 11.7063 11.233 12.0747 10.9945C12.8798 10.4733 13.3334 9.90125 13.3334 9.33582C13.3334 8.55364 13.1074 8.06362 12.8059 7.74162C12.4915 7.40585 12.0012 7.15365 11.3107 7.03303ZM11 15C10.4478 15 10 15.4477 10 16C10 16.5523 10.4478 17 11 17H11.0084C11.5607 17 12.0084 16.5523 12.0084 16C12.0084 15.4477 11.5607 15 11.0084 15H11Z" fill="white"/>
</svg>
